<svg xmlns="http://www.w3.org/2000/svg" width="362" height="42.125" viewBox="0 0 362 42.125">
    <path fill="none" stroke="currentColor" stroke-linecap="round" stroke-width="10px" fill-rule="evenodd" d="M25,160c10.473-19.526,21.555-33.2,32-32,14.376,1.653,19.472,32,32,32,12.873,0,19.127-32,32-32s19.127,32,32,32,19.127-32,32-32,19.127,32,32,32,19.127-32,32-32,19.127,32,32,32,19.127-32,32-32c12.527,0,17.624,30.347,32,32,10.445,1.2,21.527-12.474,32-32" transform="translate(-20 -122.938)"/>
</svg>
