<svg xmlns="http://www.w3.org/2000/svg" viewBox="0 0 511.734 511.734" class="arcade-machine">
	<path d="M375.804 0H135.929a3.995 3.995 0 0 0-3.998 3.998 3.996 3.996 0 0 0 3.998 3.998h239.876a3.995 3.995 0 0 0 3.997-3.998A3.995 3.995 0 0 0 375.804 0zM367.809 71.962H143.925a3.995 3.995 0 0 0-3.998 3.998 3.996 3.996 0 0 0 3.998 3.998h223.883a3.997 3.997 0 0 0 3.999-3.998 3.995 3.995 0 0 0-3.998-3.998zM375.804 495.742H135.929a3.995 3.995 0 0 0-3.998 3.998 3.996 3.996 0 0 0 3.998 3.998h239.876a3.995 3.995 0 0 0 3.997-3.998 3.995 3.995 0 0 0-3.998-3.998z"/>
	<path d="M359.812 495.742a3.996 3.996 0 0 0-3.998 3.998v7.996a3.996 3.996 0 0 0 3.998 3.998 3.995 3.995 0 0 0 3.998-3.998v-7.996a3.995 3.995 0 0 0-3.998-3.998zM151.921 495.742a3.995 3.995 0 0 0-3.998 3.998v7.996c0 2.21 1.788 3.998 3.998 3.998s3.998-1.788 3.998-3.998v-7.996a3.995 3.995 0 0 0-3.998-3.998zM375.804 271.86H135.929a3.995 3.995 0 0 0-3.998 3.997v23.987a3.996 3.996 0 0 0 3.998 3.998h239.876a3.995 3.995 0 0 0 3.997-3.998v-23.987a3.995 3.995 0 0 0-3.998-3.997zm-3.998 23.986H139.927v-15.992h231.879v15.992z"/>
	<path d="M135.929 0a3.995 3.995 0 0 0-3.998 3.998v263.863a3.997 3.997 0 0 0 3.998 3.998 3.996 3.996 0 0 0 3.998-3.998V3.998A3.995 3.995 0 0 0 135.929 0zM375.805 0a3.995 3.995 0 0 0-3.998 3.998v263.863a3.996 3.996 0 0 0 3.998 3.998 3.997 3.997 0 0 0 3.998-3.998V3.998A3.995 3.995 0 0 0 375.805 0zM135.929 303.842a3.996 3.996 0 0 0-3.998 3.998v191.9a3.996 3.996 0 0 0 3.998 3.998 3.995 3.995 0 0 0 3.998-3.998v-191.9a3.996 3.996 0 0 0-3.998-3.998zM375.805 303.842a3.996 3.996 0 0 0-3.998 3.998v191.9a3.995 3.995 0 0 0 3.998 3.998 3.996 3.996 0 0 0 3.998-3.998v-191.9a3.996 3.996 0 0 0-3.998-3.998zM355.758 243.217l-15.991-95.95a4 4 0 0 0-3.943-3.342H175.907a3.995 3.995 0 0 0-3.943 3.342l-15.991 95.95a3.995 3.995 0 0 0 3.287 4.599c2.171.379 4.241-1.108 4.6-3.287l15.433-92.608h153.143l15.438 92.608c.319 1.956 2.022 3.342 3.943 3.342a3.993 3.993 0 0 0 3.941-4.654z"/>
	<path d="M255.867 239.875a3.996 3.996 0 0 0-3.998 3.998v15.992a3.995 3.995 0 0 0 3.998 3.998 3.996 3.996 0 0 0 3.998-3.998v-15.992a3.996 3.996 0 0 0-3.998-3.998z"/>
	<path d="M255.867 223.883c-6.614 0-11.994 5.38-11.994 11.994s5.38 11.994 11.994 11.994c6.613 0 11.993-5.38 11.993-11.994s-5.38-11.994-11.993-11.994zm0 15.993a4 4 0 0 1-3.998-3.998 4 4 0 0 1 3.998-3.998c2.205 0 3.998 1.792 3.998 3.998s-1.793 3.998-3.998 3.998zM255.867 255.867c-6.614 0-11.994 5.38-11.994 11.994 0 2.209 1.788 3.998 3.998 3.998s3.998-1.789 3.998-3.998a4.003 4.003 0 0 1 3.998-3.998 4.004 4.004 0 0 1 3.998 3.998 3.996 3.996 0 0 0 3.998 3.998 3.996 3.996 0 0 0 3.997-3.998c0-6.614-5.38-11.994-11.993-11.994zM207.891 255.867h-23.987a3.995 3.995 0 0 0-3.998 3.998 3.995 3.995 0 0 0 3.998 3.998h23.987a3.995 3.995 0 0 0 3.998-3.998 3.995 3.995 0 0 0-3.998-3.998z"/>
	<path d="M183.904 255.867a3.995 3.995 0 0 0-3.998 3.998v7.996a3.996 3.996 0 0 0 3.998 3.998 3.996 3.996 0 0 0 3.998-3.998v-7.996a3.995 3.995 0 0 0-3.998-3.998zM207.891 255.867a3.995 3.995 0 0 0-3.998 3.998v7.996a3.997 3.997 0 0 0 3.998 3.998 3.996 3.996 0 0 0 3.998-3.998v-7.996a3.995 3.995 0 0 0-3.998-3.998zM327.83 255.867h-23.988a3.995 3.995 0 0 0-3.998 3.998 3.995 3.995 0 0 0 3.998 3.998h23.988a3.995 3.995 0 0 0 3.997-3.998 3.995 3.995 0 0 0-3.997-3.998z"/>
	<path d="M303.842 255.867a3.995 3.995 0 0 0-3.998 3.998v7.996a3.996 3.996 0 0 0 3.998 3.998 3.996 3.996 0 0 0 3.998-3.998v-7.996a3.995 3.995 0 0 0-3.998-3.998zM327.83 255.867a3.995 3.995 0 0 0-3.998 3.998v7.996a3.995 3.995 0 0 0 3.998 3.998 3.996 3.996 0 0 0 3.997-3.998v-7.996a3.995 3.995 0 0 0-3.997-3.998zM370.634 257.038l-15.991-15.991a3.996 3.996 0 0 0-5.653 0 3.996 3.996 0 0 0 0 5.653l15.992 15.991a3.984 3.984 0 0 0 2.826 1.172 3.98 3.98 0 0 0 2.826-1.172 3.996 3.996 0 0 0 0-5.653zM162.743 241.047a3.996 3.996 0 0 0-5.653 0l-15.991 15.991a3.996 3.996 0 0 0 0 5.653 3.985 3.985 0 0 0 2.826 1.172 3.986 3.986 0 0 0 2.827-1.172l15.991-15.991a3.996 3.996 0 0 0 0-5.653zM369.596 80.381a4.006 4.006 0 0 0-5.364 1.788l-31.983 63.966a4.002 4.002 0 0 0 1.788 5.365c.57.284 1.18.421 1.788.421a3.992 3.992 0 0 0 3.576-2.209l31.983-63.967a4 4 0 0 0-1.788-5.364zM179.485 146.135l-31.983-63.966a4.008 4.008 0 0 0-5.365-1.788 3.997 3.997 0 0 0-1.788 5.364l31.983 63.967a3.999 3.999 0 0 0 5.365 1.788 3.998 3.998 0 0 0 1.788-5.365z"/>
	<path d="M231.879 239.875h-71.962a3.996 3.996 0 0 0-3.998 3.998 3.995 3.995 0 0 0 3.998 3.998h71.962c2.21 0 3.998-1.788 3.998-3.998s-1.789-3.998-3.998-3.998zM351.817 239.875h-71.963a3.996 3.996 0 0 0-3.998 3.998 3.995 3.995 0 0 0 3.998 3.998h71.963c2.21 0 3.997-1.788 3.997-3.998s-1.787-3.998-3.997-3.998zM327.83 327.83H183.904a3.995 3.995 0 0 0-3.998 3.998v63.967a3.995 3.995 0 0 0 3.998 3.997H327.83a3.995 3.995 0 0 0 3.997-3.997v-63.967a3.995 3.995 0 0 0-3.997-3.998zm-3.998 63.967h-135.93v-55.971h135.93v55.971z"/>
	<path d="M295.846 343.822a3.996 3.996 0 0 0-3.998 3.998v31.983c0 2.21 1.789 3.998 3.998 3.998s3.998-1.788 3.998-3.998V347.82a3.995 3.995 0 0 0-3.998-3.998z"/>
	<path d="M295.846 343.822c-11.025 0-19.989 8.964-19.989 19.989 0 11.026 8.964 19.99 19.989 19.99s19.99-8.964 19.99-19.99c0-11.025-8.965-19.989-19.99-19.989zm0 31.982c-6.613 0-11.993-5.38-11.993-11.994 0-6.613 5.38-11.993 11.993-11.993 6.614 0 11.994 5.38 11.994 11.993 0 6.614-5.38 11.994-11.994 11.994zM207.891 351.818c-6.613 0-11.993 5.38-11.993 11.993 0 6.614 5.38 11.994 11.993 11.994 6.615 0 11.995-5.38 11.994-11.994 0-6.613-5.38-11.993-11.994-11.993zm0 15.99a4.003 4.003 0 0 1-3.998-3.998c0-2.201 1.792-3.997 3.998-3.997s3.998 1.796 3.998 3.997a4.003 4.003 0 0 1-3.998 3.998z"/>
	<path d="M207.891 367.809a3.996 3.996 0 0 0-3.998 3.998v7.996a3.996 3.996 0 0 0 3.998 3.998 3.995 3.995 0 0 0 3.998-3.998v-7.996a3.996 3.996 0 0 0-3.998-3.998zM246.267 48.776a4.006 4.006 0 0 0-5.595.801c-3.05 4.064-7.711 6.395-12.791 6.395-8.82 0-15.992-7.172-15.992-15.991 0-8.82 7.172-15.992 15.992-15.992a3.995 3.995 0 0 0 3.998-3.998 3.995 3.995 0 0 0-3.998-3.998c-13.227 0-23.987 10.76-23.987 23.987s10.76 23.987 23.987 23.987c7.621 0 14.614-3.498 19.186-9.596a3.99 3.99 0 0 0-.8-5.595zM283.86 15.992a3.996 3.996 0 0 0-3.998 3.998 3.996 3.996 0 0 0 3.998 3.998c8.815 0 15.983 7.172 15.983 15.992 0 8.819-7.168 15.991-15.983 15.991-5.075 0-9.737-2.327-12.798-6.387a4.006 4.006 0 0 0-5.6-.789 4 4 0 0 0-.788 5.599c4.583 6.083 11.573 9.573 19.186 9.573 13.22 0 23.979-10.761 23.979-23.988S297.08 15.992 283.86 15.992z"/>
	<path d="M283.86 15.992h-55.979c-2.21 0-3.998 1.789-3.998 3.998s1.789 3.998 3.998 3.998h55.979a3.995 3.995 0 0 0 3.998-3.998 3.995 3.995 0 0 0-3.998-3.998zM267.884 47.975h-24.022a3.995 3.995 0 0 0-3.998 3.998 3.995 3.995 0 0 0 3.998 3.998h24.022a3.995 3.995 0 0 0 3.998-3.998 3.995 3.995 0 0 0-3.998-3.998zM227.881 27.985a3.995 3.995 0 0 0-3.998 3.998v15.992a3.996 3.996 0 0 0 3.998 3.998 3.995 3.995 0 0 0 3.998-3.998V31.983a3.995 3.995 0 0 0-3.998-3.998z"/>
	<path d="M235.877 35.981h-15.991c-2.21 0-3.998 1.788-3.998 3.998s1.788 3.998 3.998 3.998h15.991c2.21 0 3.998-1.788 3.998-3.998s-1.788-3.998-3.998-3.998zM288.099 31.983h-.078c-2.217 0-3.966 1.788-3.966 3.998s1.835 3.998 4.044 3.998a4 4 0 0 0 3.998-3.998 4 4 0 0 0-3.998-3.998zM280.104 39.979h-.078c-2.218 0-3.967 1.788-3.967 3.998 0 2.209 1.835 3.998 4.045 3.998a4 4 0 0 0 3.998-3.998 4 4 0 0 0-3.998-3.998zM226.709 161.089a3.996 3.996 0 0 0-5.653 0l-39.979 39.979a3.996 3.996 0 0 0 2.827 6.824 3.98 3.98 0 0 0 2.826-1.171l39.979-39.979a3.996 3.996 0 0 0 0-5.653zM202.722 161.088a3.996 3.996 0 0 0-5.653 0l-15.992 15.992a3.996 3.996 0 0 0 2.827 6.824 3.98 3.98 0 0 0 2.826-1.171l15.992-15.992a3.996 3.996 0 0 0 0-5.653zM359.813 479.751H151.921c-2.21 0-3.998 1.788-3.998 3.998s1.788 3.997 3.998 3.997h207.891a3.995 3.995 0 0 0 3.999-3.997 3.995 3.995 0 0 0-3.998-3.998z"/>
</svg>
