<svg xmlns="http://www.w3.org/2000/svg" viewBox="0 0 512.001 512" class="party">
	<path d="M293.168 134a9.972 9.972 0 0 1-4.652-1.148l-32.391-17.028-32.387 17.028a10 10 0 0 1-14.508-10.543l6.184-36.063-26.203-25.539a10.005 10.005 0 0 1 5.543-17.059l36.21-5.261L247.16 5.574a9.997 9.997 0 0 1 17.934 0l16.195 32.813 36.207 5.261a9.999 9.999 0 1 1 5.543 17.059l-26.2 25.54 6.184 36.062A10 10 0 0 1 293.168 134zm-37.043-39.473a10 10 0 0 1 4.656 1.149l19.106 10.043-3.649-21.274a9.999 9.999 0 0 1 2.875-8.851l15.457-15.067-21.36-3.105a10.004 10.004 0 0 1-7.53-5.469l-9.555-19.355-9.55 19.355a10.004 10.004 0 0 1-7.532 5.469l-21.36 3.105 15.458 15.067a9.999 9.999 0 0 1 2.875 8.851l-3.649 21.274 19.106-10.043a9.996 9.996 0 0 1 4.652-1.149zm0 0M51.297 259.078a10 10 0 0 1-9.383-6.535l-9.05-24.516-25.329-6.437a10.01 10.01 0 0 1-7.316-7.613 9.996 9.996 0 0 1 3.59-9.93l20.515-16.188-1.699-26.078a9.997 9.997 0 0 1 15.531-8.965l21.73 14.512 24.278-9.676a10 10 0 0 1 13.328 12l-7.086 25.153 16.703 20.097a9.997 9.997 0 0 1 1.446 10.457 9.996 9.996 0 0 1-8.739 5.926l-26.113 1.035-13.953 22.098a9.995 9.995 0 0 1-8.453 4.66zM32.102 207.2l10.785 2.742a10.013 10.013 0 0 1 6.918 6.227l3.851 10.437 5.942-9.406a9.988 9.988 0 0 1 8.058-4.652l11.121-.442-7.113-8.558a9.985 9.985 0 0 1-1.934-9.102l3.016-10.71-10.336 4.117a9.991 9.991 0 0 1-9.258-.973l-9.254-6.18.723 11.106a9.986 9.986 0 0 1-3.781 8.5zm0 0M282.148 260.95a10.054 10.054 0 0 1-7.066-2.93 10.06 10.06 0 0 1-2.934-7.07c0-2.641 1.07-5.208 2.934-7.067a10.058 10.058 0 0 1 7.066-2.934c2.633 0 5.211 1.07 7.07 2.934 1.86 1.86 2.93 4.43 2.93 7.066 0 2.633-1.066 5.211-2.93 7.07a10.073 10.073 0 0 1-7.07 2.93zm0 0"/>
	<path d="M256 512a9.998 9.998 0 0 1-9.945-8.965l-35-336a10.009 10.009 0 0 1 2.515-7.73A10.016 10.016 0 0 1 221 156h70c2.832 0 5.531 1.203 7.43 3.305a10.012 10.012 0 0 1 2.52 7.73l-4.684 44.93c-.57 5.492-5.485 9.488-10.98 8.91-5.493-.57-9.481-5.488-8.911-10.98L279.906 176h-47.808L256 405.48l12.168-116.804c.57-5.492 5.477-9.477 10.98-8.91 5.493.574 9.48 5.492 8.91 10.984l-22.113 212.285A10.001 10.001 0 0 1 256 512zm0 0M201.262 472.262a9.982 9.982 0 0 1-7.575-3.469L55.145 308.246a9.984 9.984 0 0 1-2.29-8.2 9.983 9.983 0 0 1 4.86-6.991l68.773-39.711a10.003 10.003 0 0 1 14.446 5.37l69.765 200.259a10.001 10.001 0 0 1-9.437 13.289zM78.18 304.328l96.375 111.684-48.532-139.305zm0 0M460.703 259.078a9.995 9.995 0 0 1-8.453-4.66l-13.953-22.098-26.11-1.035a9.997 9.997 0 0 1-8.742-5.926 10.006 10.006 0 0 1 1.446-10.457l16.703-20.097-7.086-25.153a9.998 9.998 0 1 1 13.332-12l24.273 9.676 21.73-14.512a10 10 0 1 1 15.535 8.965l-1.702 26.078 20.52 16.188a9.994 9.994 0 0 1 3.585 9.93 10 10 0 0 1-7.316 7.613l-25.324 6.437-9.055 24.516a9.994 9.994 0 0 1-9.383 6.535zm-27.48-46.973l11.117.438a10.015 10.015 0 0 1 8.062 4.652l5.942 9.41 3.851-10.437a9.997 9.997 0 0 1 6.918-6.227l10.785-2.742-8.738-6.894a10 10 0 0 1-3.785-8.5l.727-11.106-9.254 6.18a10.002 10.002 0 0 1-9.258.973l-10.336-4.118 3.016 10.711a9.996 9.996 0 0 1-1.934 9.102zm0 0M310.738 472.262a10.001 10.001 0 0 1-9.438-13.29l69.766-200.257a10.009 10.009 0 0 1 14.446-5.371l68.773 39.71a9.983 9.983 0 0 1 4.86 6.993 9.98 9.98 0 0 1-2.29 8.2L318.312 468.792a9.976 9.976 0 0 1-7.574 3.469zm75.239-195.555l-48.532 139.305 96.375-111.684zm0 0M80.172 32.668c-5.52 0-10-4.477-10-10V10c0-5.52 4.48-10 10-10 5.523 0 10 4.48 10 10v12.668c0 5.523-4.477 10-10 10zm0 0M80.172 93.367c-5.52 0-10-4.476-10-10V70.668c0-5.523 4.48-10 10-10 5.523 0 10 4.477 10 10v12.7c0 5.523-4.477 10-10 10zm0 0M116.855 56.684h-12.683c-5.52 0-10-4.477-10-10 0-5.52 4.48-10 10-10h12.683c5.524 0 10 4.48 10 10 0 5.523-4.476 10-10 10zm0 0M55.172 56.684H43.488c-5.52 0-10-4.477-10-10 0-5.52 4.48-10 10-10h11.688c5.52 0 10 4.48 10 10 0 5.523-4.48 10-10.004 10zm0 0M465.316 451.297c-5.523 0-10-4.477-10-10v-12.664c0-5.524 4.477-10 10-10 5.52 0 10 4.476 10 10v12.664c0 5.523-4.48 10-10 10zm0 0M465.316 512c-5.523 0-10-4.477-10-10v-12.703c0-5.52 4.477-10 10-10 5.52 0 10 4.48 10 10V502c0 5.523-4.48 10-10 10zm0 0M502 475.316h-12.688c-5.519 0-10-4.48-10-10 0-5.523 4.481-10 10-10H502c5.52 0 10 4.477 10 10 0 5.52-4.477 10-10 10zm0 0M440.316 475.316h-11.683c-5.524 0-10-4.48-10-10 0-5.523 4.476-10 10-10h11.683c5.52 0 10 4.477 10 10 0 5.52-4.48 10-10 10zm0 0"/>
</svg>
