<svg xmlns="http://www.w3.org/2000/svg" viewBox="0 -16 512 512" class="dodgem">
	<path d="M480.313 390c-7.418-81.898-74.926-146.707-157.965-149.867L292.215 210l34.39-34.395-21.21-21.21-90 90 21.21 21.21L271 231.215l30 30V300h-91.508c-6.969-34.191-37.273-60-73.492-60h-15v-60H61v-60h163.027l-40-60 40-60H31v390H0v90h512v-90zM61 30h106.973l-20 30 20 30H61zm75 240c19.555 0 36.227 12.543 42.422 30H121v-30zm-75-60h30v120h240v-59.172c62.48 6.938 112.227 56.695 119.164 119.172H61zm421 240H30v-30h452zm0 0"/>
</svg>
