<svg xmlns="http://www.w3.org/2000/svg" viewbox="0 0 2707 2707" width="2707.5" height="2707.5369" class="laser-gun">
    <defs>
        <linearGradient id="d">
            <stop offset="0"/>
            <stop offset="1" stop-opacity="0"/>
        </linearGradient>
        <linearGradient id="b">
            <stop offset="0" stop-color="ivory"/>
            <stop offset="1" stop-color="ivory" stop-opacity="0"/>
        </linearGradient>
        <linearGradient id="a">
            <stop offset="0" stop-color="#919fff"/>
            <stop offset=".37676254" stop-color="#b9c5ff"/>
            <stop offset="1" stop-color="#e1eaff"/>
        </linearGradient>
        <linearGradient id="c">
            <stop offset="0" stop-color="#919fff"/>
            <stop offset=".37676254" stop-color="#b9c5ff"/>
            <stop offset="1" stop-color="#e1eaff"/>
        </linearGradient>
    </defs>
    <path fill="#fff" stroke="#000" stroke-linecap="round" stroke-linejoin="round" stroke-width="35" d="M1847.9277 1722.4448s-45.1354 54.843-51.9392 90.5628c-11.9066 86.7482 44.0592 344.4503 17.0094 474.5634-9.1665 44.0922-21.6737 104.2336-81.6453 137.7765-55.4264 31.0008-116.5882 25.113-175.7631 23.8133-55.0307-1.2088-99.4627-14.4153-160.4048-32.1117-81.6453-62.9349-107.8367-70.899-145.1994-129.4781-11.4123-17.8929-5.1729-48.6023 17.7319-59.8425 40.323-19.7878 66.4555-28.655 80.7343-63.3654 16.2124-39.4105-27.3971-72.8429-9.3124-105.5263 14.0093-25.3182 46.8924-24.6021 66.5255-68.4328 18.7872-41.9425-30.3138-64.5-19.0878-109.3586 7.0103-28.0133 36.8-37.6642 46.9042-61.7323 28.852-68.7253 22.3187-224.0263 22.3187-224.0263z"/>
    <path fill="#fff" stroke="#000" stroke-linecap="round" stroke-linejoin="round" stroke-width="35" d="M1358.9688 1514.7126s.4685 70.8784-44.5017 165.9794c-28.5716 60.4218-45.7045 63.4664-67.354 93.5351 5.9667 15.3473 4.9856 13.9981 16.4665 27.0813 13.0787 14.9041 13.7397 12.429 24.8522 20.0323 44.5017-15.6357 79.1722-17.6052 140.2964-78.1057 56.8698-56.2895 80.5843-174.3987 80.5843-174.3987z"/>
    <path stroke="#000" stroke-linecap="round" stroke-linejoin="round" stroke-width="11.79074192" d="M1338.5979 1737.3069c34.9286-31.3152 33.6419-33.4668 47.4528-52.6298 13.2228-19.6201 20.276-33.7207 24.7557-57.8083 2.1038-11.3123 7.3681-21.634-.025-37.4262l-5.2171-12.1343 39.4556 20.0578s-12.7824 44.4713-15.892 54.7878c-2.6361 8.746-11.7539 27.7213-15.16 33.0836-18.9059 29.7648-37.7497 52.8089-67.1604 72.1663-31.1666 20.513-56.7705 28.8491-60.2439 25.2176 17.6108-17.9741 37.5319-32.3124 52.0342-45.3145z"/>
    <path fill="#fff" stroke="#000" stroke-linecap="round" stroke-linejoin="round" stroke-width="33.06031418" d="M2663.6786 1546.4042a219.4218 219.4218 0 1 1-438.8436 0 219.4218 219.4218 0 1 1 438.8436 0z" transform="matrix(.90256 0 0 .91233 229.03492 -.69564)"/>
    <path fill="#fff" stroke="#000" stroke-width="30" d="M2353.8981 1267.7091c-5.0814 164.1755-88.6572 317.9038-188.5157 383.6742-62.1272 40.9192-215.4482 103.7672-366.8176 63.5532-349.3862-92.8209-559.3187-179.1705-798.6182-449.6329-137.86078-155.8138-93.57345-407.12702 167.8963-513.51256 111.6089-45.41089 375.3646-30.98395 485.0244-28.7968 450.4101 8.98338 709.7532 262.90329 701.0308 544.71486z"/>
    <path fill="#fff" stroke="#000" stroke-linecap="round" stroke-linejoin="round" stroke-width="14.30566216" d="M2663.6786 1546.4042a219.4218 219.4218 0 1 1-438.8436 0 219.4218 219.4218 0 1 1 438.8436 0z" transform="matrix(1.5858 .44678 -.7226 2.5696 -1578.9771 -4113.8471)"/>
    <path fill="#fff" stroke="#000" stroke-linecap="round" stroke-linejoin="round" stroke-width="8" d="M1561.0307 1099.7642c-8.36 22.5876 146.7354 86.598 271.8213 170.7904 134.7079 79.3814 185.2234 151.5463 209.2783 156.3573 21.6494-15.6358-67.3539-144.3298-56.5291-158.7628 24.0549-3.6082 186.426 98.6254 208.0755 96.2199-2.4055-33.677-139.5189-125.0859-139.5189-125.0859s-187.6288-98.6255-203.2645-96.22c-7.2165 12.0275 58.9346 80.5843 56.5291 101.031-16.8385 0-186.4261-120.2749-346.3917-144.3299z"/>
    <path fill="#fff" stroke="#000" stroke-linecap="round" stroke-linejoin="round" stroke-width="30" d="M1061.1806 656.36559c125.8699-20.41133 275.3475-30.26942 321.4785 5.10283 31.1293 23.86925 18.5 261.63838-51.2164 410.60698-72.6261 155.1858-150.3326 259.117-195.4205 276.5744-49.7824 19.275-98.6548-73.1406-183.70209-188.8048z"/>
    <path fill="#fff" stroke="#000" stroke-linecap="round" stroke-linejoin="round" stroke-width="20.19597626" d="M2663.6786 1546.4042a219.4218 219.4218 0 1 1-438.8436 0 219.4218 219.4218 0 1 1 438.8436 0z" transform="matrix(1.11523 .31876 -.50818 1.8333 -1023.71 -2738.101)"/>
    <path fill="#fff" stroke="#000" stroke-linecap="round" stroke-linejoin="round" stroke-width="30" d="M763.61936 678.47789c112.26235-40.82266 162.28071-49.48745 212.61799-20.41133 44.38165 25.63595 93.63345 137.84676 30.72075 269.80588-73.73606 154.66146-137.39875 178.52316-175.30092 155.42996-47.23331-28.7786-100.35574-88.449-147.98227-190.5057 43.1705-159.2219 35.25473-137.36549 79.94445-214.31881z"/>
    <path fill="#fff" stroke="#000" stroke-linecap="round" stroke-linejoin="round" stroke-width="30.29763031" d="M2663.6786 1546.4042a219.4218 219.4218 0 1 1-438.8436 0 219.4218 219.4218 0 1 1 438.8436 0z" transform="matrix(.73233 .21569 -.3337 1.24053 -652.28266 -1663.3189)"/>
    <path fill="#fff" stroke="#000" stroke-linecap="round" stroke-linejoin="round" stroke-width="30" d="M222.37081 730.5202l29.86327-72.499c44.50172-1.20275 180.3096 43.25377 254.53208 54.13121 65.62493 9.61745 55.98844-1.46633 88.45688-2.07894 31.28903-.59036 70.02591 17.21977 72.16495 68.5567 2.85757 68.58154-72.66761 158.85471-105.34373 134.7079-32.67612-24.14681-82.66246-53.90709-131.25757-78.57279-110.42083-56.04693-156.69766-80.19009-208.41588-104.24508z"/>
    <path id="nob" fill="#fff" stroke="#000" stroke-linecap="round" stroke-linejoin="round" stroke-width="41.32940674" d="M2663.6786 1546.4042a219.4218 219.4218 0 1 1-438.8436 0 219.4218 219.4218 0 1 1 438.8436 0z" transform="matrix(.71824 0 0 .73359 -1536.6607 -448.5119)"/>
    <path stroke="#000" stroke-linecap="round" stroke-linejoin="round" stroke-width="15" d="M338.3563 719.44641c-46.04346 96.58586-124.59821 86.60224-124.59821 86.60224s49.54908-13.49704 86.74453-87.80498c21.02118-93.80836-11.097-134.93322-11.097-134.93322s68.76313 56.19159 48.95068 136.13596z"/>
    <g fill="#fff" stroke="#000" stroke-linecap="round" stroke-linejoin="round">
        <path stroke-width="30" d="M2080.16025 708.71933l52.4117 20.12032s-30.5276 46.64035-42.4343 158.90266c-30.617 13.60756-64.3183 1.99196-84.7297-38.8307 73.1406-73.1406 74.7523-140.19228 74.7523-140.19228zM1775.69135 589.81681l52.4117 16.71843s-54.3409 67.05168-52.64 174.21116c-30.617 13.60756-64.3183 1.99196-84.7297-38.8307 73.1406-73.1406 84.958-152.09889 84.958-152.09889z"/>
        <path stroke-width="77.46259308" d="M2663.6786 1546.4042c0 121.1833-98.2385 219.4218-219.4218 219.4218-121.1833 0-219.4218-98.2385-219.4218-219.4218 0-121.1833 98.2385-219.4218 219.4218-219.4218 121.1833 0 219.4218 98.2385 219.4218 219.4218z" transform="matrix(.38783 0 0 .38674 1278.53825 147.46797)"/>
        <path stroke-width="30" d="M1773.90699368 567.2822184c151.47607897 61.35345288 221.98614694 91.11520492 340.64458613 124.15285961 64.24890487 17.88859735 99.78112712 13.11392439 113.36649264 36.45203955 10.72208846 18.41930253-8.48223311 33.79678904-33.86166816 39.27423592-20.5713373 4.43974565-49.68784787-15.19594799-85.76472252-28.55775346-97.42267777-36.08248155-229.71557372-85.43351344-355.0775898-120.54462225-33.13530913-9.28046082-39.80744423-4.54911192-48.41820144-18.41085205-8.27490854-13.32103995 1.38745194-44.08523185 12.21223148-46.49071846 33.91905876-7.53756745 24.69373961 1.0805389 56.89887167 14.12481114z"/>
        <path stroke-width="77.46259308" d="M2663.6786 1546.4042c0 121.1833-98.2385 219.4218-219.4218 219.4218-121.1833 0-219.4218-98.2385-219.4218-219.4218 0-121.1833 98.2385-219.4218 219.4218-219.4218 121.1833 0 219.4218 98.2385 219.4218 219.4218z" transform="matrix(.38783 0 0 .38674 714.44888 -30.538914)"/>
    </g>
    <path stroke="#000" stroke-linecap="round" stroke-linejoin="round" stroke-width="15" d="M1372.1991 2392.7195s-.1419-33.0565 10.4474-53.7303c9.0934-17.7535 35.8431-29.8024 41.2707-40.0842 17.4422-33.0415 30.4432-47.706 38.488-84.1924 7.7644-35.2144-25.3651-74.4126-16.8384-109.4502 9.9181-40.7556 61.0446-44.4879 74.5704-84.1924 20.4859-60.1358-27.4193-70.8771-8.4192-132.3024 19.9764-64.5818 36.1721-55.4461 57.7319-84.1924 10.8246-14.433 12.0275-125.086 12.0275-125.086s25.4555 80.475 15.6358 116.6667c-12.3718 45.5978-55.4034 59.2408-64.9485 95.0172-11.3913 42.6965 28.0364 90.2584 12.0274 145.5326-10.696 36.9305-64.3331 39.9156-74.5704 76.9759-10.6888 38.6946 28.1041 54.2272 10.8247 111.8558-13.6427 45.4997-19.423 62.0083-48.11 96.2199-36.7595 43.8388-27.6633 101.031-27.6633 101.031z"/>
</svg>
